<svg width="184" height="29" viewBox="0 0 184 29" fill="none" xmlns="http://www.w3.org/2000/svg">
<path d="M13.545 13.08C14.1075 13.845 14.4 14.79 14.4 15.87C14.4 16.815 14.1525 17.6475 13.68 18.39C13.185 19.155 12.5325 19.74 11.6775 20.145C10.8225 20.5725 9.855 20.775 8.775 20.775H0V3H8.19C9.8775 3 11.205 3.4275 12.195 4.2825C13.1625 5.1375 13.6575 6.2625 13.6575 7.68C13.6575 8.625 13.4325 9.4575 12.9825 10.1325C12.5325 10.8075 11.9025 11.3025 11.115 11.5725C12.15 11.7975 12.96 12.315 13.545 13.08ZM3.51 10.3125H7.0425C8.0775 10.3125 8.8425 10.1775 9.3375 9.8625C9.8325 9.5475 10.08 9.075 10.08 8.4225C10.08 7.7475 9.81 7.23 9.2925 6.8925C8.775 6.5775 7.9875 6.3975 6.93 6.3975H3.51V10.3125ZM9.99 16.86C10.5075 16.5225 10.7775 16.005 10.7775 15.285C10.7775 14.6325 10.5075 14.1375 10.0125 13.8225C9.5175 13.5075 8.73 13.35 7.6725 13.35H3.51V17.3775H7.5825C8.6625 17.3775 9.45 17.22 9.99 16.86Z" fill="#0A0D12"/>
<path d="M16.252 7.04995C15.847 6.64495 15.6445 6.14995 15.6445 5.51995C15.6445 4.93495 15.847 4.43995 16.252 4.03495C16.657 3.65245 17.152 3.44995 17.782 3.44995C18.3895 3.44995 18.8845 3.65245 19.2895 4.03495C19.6945 4.43995 19.897 4.93495 19.897 5.51995C19.897 6.12745 19.6945 6.62245 19.2895 7.02745C18.8845 7.43245 18.3895 7.63495 17.782 7.63495C17.152 7.63495 16.657 7.45495 16.252 7.04995ZM16.0945 9.07495H19.447V20.775H16.0945V9.07495Z" fill="#0A0D12"/>
<path d="M23.8187 20.3475C22.8737 19.8075 22.1312 19.065 21.6137 18.12C21.0737 17.175 20.8262 16.1175 20.8262 14.9025C20.8262 13.71 21.0737 12.6525 21.6137 11.7075C22.1312 10.7625 22.8737 10.0425 23.8187 9.50247C24.7637 8.98497 25.8437 8.71497 27.0587 8.71497C28.2737 8.71497 29.3537 8.98497 30.2987 9.50247C31.2437 10.0425 31.9637 10.7625 32.5037 11.7075C33.0437 12.6525 33.3137 13.71 33.3137 14.9025C33.3137 16.1175 33.0437 17.175 32.5037 18.12C31.9637 19.065 31.2212 19.8075 30.2762 20.3475C29.3312 20.8875 28.2512 21.135 27.0587 21.135C25.8437 21.135 24.7637 20.8875 23.8187 20.3475ZM29.1512 17.31C29.6912 16.68 29.9612 15.8925 29.9612 14.9025C29.9612 13.935 29.6912 13.1475 29.1512 12.5175C28.6112 11.91 27.9137 11.595 27.0587 11.595C26.2037 11.595 25.5287 11.91 24.9887 12.5175C24.4487 13.1475 24.1787 13.935 24.1787 14.9025C24.1787 15.8925 24.4487 16.68 24.9887 17.31C25.5287 17.94 26.2037 18.255 27.0587 18.255C27.9137 18.255 28.6112 17.94 29.1512 17.31Z" fill="#0A0D12"/>
<path d="M35.822 20.055C34.8095 19.335 34.292 18.3225 34.2695 17.04H37.577C37.577 17.6025 37.8245 18.03 38.2745 18.345C38.7245 18.66 39.3095 18.8175 40.0295 18.8175C40.637 18.8175 41.132 18.705 41.492 18.435C41.8523 18.165 42.0548 17.85 42.0548 17.49C42.0548 17.0625 41.8298 16.77 41.3795 16.59C40.9295 16.4325 40.2545 16.275 39.3095 16.14C38.3195 16.005 37.5095 15.8475 36.8795 15.6675C36.2495 15.4875 35.687 15.15 35.237 14.655C34.787 14.16 34.562 13.4625 34.562 12.5625C34.562 11.3925 35.0345 10.4475 36.0245 9.75C37.0145 9.075 38.3645 8.715 40.0745 8.715C41.627 8.715 42.8648 9.0975 43.8098 9.84C44.7548 10.5825 45.2723 11.595 45.3848 12.8775H42.0998C42.0548 12.315 41.8523 11.865 41.4695 11.5275C41.0645 11.2125 40.547 11.0325 39.872 11.0325C39.242 11.0325 38.7695 11.1675 38.432 11.415C38.072 11.685 37.9145 12.0225 37.9145 12.4275C37.9145 12.8325 38.117 13.125 38.5445 13.2825C38.972 13.4625 39.647 13.5975 40.547 13.6875C41.537 13.8225 42.3698 14.0025 43.0223 14.1825C43.6523 14.3625 44.2148 14.7225 44.6873 15.2175C45.1373 15.7125 45.3848 16.4325 45.3848 17.3775C45.3848 18.5475 44.8898 19.4475 43.9223 20.1225C42.9548 20.7975 41.627 21.135 39.9395 21.135C38.1845 21.135 36.812 20.775 35.822 20.055Z" fill="#0A0D12"/>
<path d="M46.2794 22.3275H47.4269C48.1469 22.35 48.7319 22.26 49.1819 22.0575C49.6094 21.855 50.0144 21.495 50.3969 20.955L45.1094 9.07501H48.6194L52.1294 16.8825L55.0544 9.07501H58.5419L53.7719 21.63C53.1869 23.0025 52.4219 23.9475 51.4544 24.4875C50.4869 25.0275 49.2494 25.275 47.7194 25.275H46.2794V22.3275Z" fill="#0A0D12"/>
<path d="M59.1016 9.07497H62.4316V10.7625C62.8366 10.1325 63.3541 9.61496 64.0291 9.25496C64.7041 8.89496 65.4916 8.71497 66.3916 8.71497C69.2716 8.71497 70.7341 10.5375 70.7341 14.16V20.775H67.3591V14.34C67.3591 13.485 67.1566 12.8325 66.7516 12.3375C66.3466 11.8425 65.7841 11.595 65.0641 11.595C64.2541 11.595 63.6016 11.8875 63.1291 12.4725C62.6566 13.0575 62.4316 13.8225 62.4316 14.79V20.775H59.1016V9.07497Z" fill="#0A0D12"/>
<path d="M77.367 20.865C76.467 20.865 75.7695 20.775 75.2745 20.595C74.757 20.415 74.3745 20.1 74.1495 19.6276C73.902 19.1551 73.7895 18.48 73.812 17.625V12.1125H71.3145L71.5253 9.07505H73.812V5.92505H77.142V9.07505H80.202L79.992 12.1125H77.142V15.915C77.142 16.5 77.1645 16.905 77.2095 17.1525C77.2545 17.4226 77.3895 17.6025 77.5695 17.715C77.7495 17.8275 78.042 17.8725 78.4695 17.8725C78.7845 17.8725 79.6828 17.85 80.2003 17.805L79.992 20.7525C78.9795 20.8425 77.9295 20.865 77.367 20.865Z" fill="#0A0D12"/>
<path d="M81.4609 3H84.7909V10.74C85.1959 10.11 85.7134 9.615 86.3884 9.255C87.0634 8.895 87.8509 8.715 88.7509 8.715C91.6309 8.715 93.0934 10.5375 93.0934 14.1375V20.775H89.7184V14.295C89.7184 13.44 89.5159 12.7875 89.1109 12.315C88.7059 11.8425 88.1434 11.595 87.4234 11.595C86.6134 11.595 85.9609 11.8875 85.4884 12.45C85.0159 13.035 84.7909 13.8 84.7909 14.745V20.775H81.4609V3Z" fill="#0A0D12"/>
<path d="M97.2912 20.3475C96.3462 19.8075 95.6262 19.065 95.1087 18.12C94.5912 17.175 94.3438 16.1175 94.3438 14.9025C94.3438 13.71 94.5912 12.6525 95.1087 11.7075C95.6262 10.7625 96.3462 10.0425 97.2912 9.50247C98.2137 8.98497 99.2712 8.71497 100.464 8.71497C101.499 8.71497 102.421 8.98497 103.254 9.47997C104.086 9.97497 104.739 10.695 105.234 11.6175C105.706 12.5625 105.954 13.62 105.954 14.835V15.915H97.7412C97.8087 16.7025 98.0787 17.31 98.5287 17.76C98.9787 18.21 99.6312 18.4125 100.486 18.4125C101.049 18.4125 101.521 18.2775 101.881 18.0075C102.241 17.7375 102.466 17.4 102.556 16.9725H105.886C105.706 18.2325 105.099 19.245 104.109 20.01C103.119 20.775 101.904 21.135 100.464 21.135C99.2712 21.135 98.2137 20.8875 97.2912 20.3475ZM102.601 13.8675C102.556 13.1925 102.354 12.6525 101.949 12.225C101.544 11.82 101.004 11.595 100.329 11.595C99.5637 11.595 98.9787 11.7975 98.5512 12.2025C98.1237 12.6075 97.8537 13.17 97.7637 13.8675H102.601Z" fill="#0A0D12"/>
<path d="M108.459 20.055C107.446 19.335 106.929 18.3225 106.906 17.04H110.214C110.214 17.6025 110.461 18.03 110.911 18.345C111.361 18.66 111.946 18.8175 112.666 18.8175C113.274 18.8175 113.769 18.705 114.129 18.435C114.489 18.165 114.691 17.85 114.691 17.49C114.691 17.0625 114.466 16.77 114.016 16.59C113.566 16.4325 112.891 16.275 111.946 16.14C110.956 16.005 110.146 15.8475 109.516 15.6675C108.886 15.4875 108.324 15.15 107.874 14.655C107.424 14.16 107.199 13.4625 107.199 12.5625C107.199 11.3925 107.671 10.4475 108.661 9.74996C109.651 9.07496 111.001 8.71497 112.711 8.71497C114.264 8.71497 115.501 9.09746 116.446 9.83996C117.391 10.5825 117.909 11.595 118.021 12.8775H114.736C114.691 12.315 114.489 11.865 114.106 11.5275C113.701 11.2125 113.184 11.0325 112.509 11.0325C111.879 11.0325 111.406 11.1675 111.069 11.415C110.709 11.685 110.551 12.0225 110.551 12.4275C110.551 12.8325 110.754 13.125 111.181 13.2825C111.609 13.4625 112.284 13.5975 113.184 13.6875C114.174 13.8225 115.006 14.0025 115.659 14.1825C116.289 14.3625 116.851 14.7225 117.324 15.2175C117.774 15.7125 118.021 16.4325 118.021 17.3775C118.021 18.5475 117.526 19.4475 116.559 20.1225C115.591 20.7975 114.264 21.135 112.576 21.135C110.821 21.135 109.449 20.775 108.459 20.055Z" fill="#0A0D12"/>
<path d="M119.551 7.05001C119.146 6.64501 118.943 6.15001 118.943 5.52001C118.943 4.93501 119.146 4.44001 119.551 4.03501C119.956 3.65251 120.451 3.45001 121.081 3.45001C121.688 3.45001 122.183 3.65251 122.588 4.03501C122.993 4.44001 123.196 4.93501 123.196 5.52001C123.196 6.12751 122.993 6.62251 122.588 7.02751C122.183 7.43251 121.688 7.63501 121.081 7.63501C120.451 7.63501 119.956 7.45501 119.551 7.05001ZM119.393 9.07501H122.746V20.775H119.393V9.07501Z" fill="#0A0D12"/>
<path d="M133.688 20.055C134.7 19.335 135.217 18.3225 135.24 17.04H131.933C131.933 17.6025 131.685 18.03 131.235 18.345C130.785 18.66 130.2 18.8175 129.48 18.8175C128.873 18.8175 128.378 18.705 128.018 18.435C127.658 18.165 127.455 17.85 127.455 17.49C127.455 17.0625 127.68 16.77 128.13 16.59C128.58 16.4325 129.255 16.275 130.2 16.14C131.19 16.005 132 15.8475 132.63 15.6675C133.26 15.4875 133.823 15.15 134.273 14.655C134.723 14.16 134.948 13.4625 134.948 12.5625C134.948 11.3925 134.475 10.4475 133.485 9.75C132.495 9.075 131.145 8.715 129.435 8.715C127.883 8.715 126.645 9.0975 125.7 9.84C124.755 10.5825 124.238 11.595 124.125 12.8775H127.41C127.455 12.315 127.657 11.865 128.04 11.5275C128.445 11.2125 128.963 11.0325 129.638 11.0325C130.268 11.0325 130.74 11.1675 131.078 11.415C131.438 11.685 131.595 12.0225 131.595 12.4275C131.595 12.8325 131.393 13.125 130.965 13.2825C130.538 13.4625 129.863 13.5975 128.963 13.6875C127.973 13.8225 127.14 14.0025 126.488 14.1825C125.858 14.3625 125.295 14.7225 124.823 15.2175C124.373 15.7125 124.125 16.4325 124.125 17.3775C124.125 18.5475 124.62 19.4475 125.588 20.1225C126.555 20.7975 127.882 21.135 129.57 21.135C131.325 21.135 132.698 20.775 133.688 20.055Z" fill="#0A0D12"/>
</svg>
